<svg width="500" height="500" viewBox="0 0 500 500" fill="none" xmlns="http://www.w3.org/2000/svg">
<path fill-rule="evenodd" clip-rule="evenodd" d="M312.947 136.758C313.527 128.038 318.202 120.217 327.053 121.482C335.171 122.644 337.493 129.614 336.917 138.343L328.405 266.222C328.123 304.41 321.443 348.759 303.898 372.389V411.386C303.898 412.917 303.74 414.409 303.439 415.844V426.928C303.439 440.77 295.061 452 281.183 452C281.183 452 224.012 451.93 223.171 451.832C210.506 451.414 198.254 441.132 198.254 428.481L198.264 414.046C198.158 413.175 198.103 412.288 198.103 411.386V375.793C185.703 372.724 151.695 308.772 151.255 306.893L127.434 204.401C125.461 195.91 130.403 187.341 138.476 185.261C146.545 183.189 154.688 188.385 156.662 196.883L171.017 258.385C171.804 263.597 176.451 267.142 181.404 266.313C186.353 265.484 189.729 260.595 188.942 255.387L181.158 82.0367C180.721 73.3088 187.098 65.854 195.397 65.4027C203.691 64.9437 210.771 71.6509 211.204 80.3824C211.204 80.3824 216.122 201.625 216.22 202.044C216.22 202.044 217.026 206.093 221.117 206.071C223.916 206.056 226.181 203.688 226.181 200.745L226.291 63.8271C226.291 55.088 233.027 48 241.336 48C249.645 48 256.381 55.0885 256.381 63.8271L256.385 203.347C256.385 205.938 258.379 208.036 260.841 208.036C263.3 208.036 265.298 205.938 265.298 203.347L269.209 80.8162C269.509 72.0811 276.477 65.2484 284.783 65.5591C293.087 65.8699 299.577 73.2023 299.285 81.9415L295.282 205.456C295.162 208.677 297.539 211.386 300.593 211.512C303.649 211.641 306.225 209.136 306.348 205.923L312.947 136.758Z" fill="white"/>
</svg>
