<svg width="500" height="500" viewBox="0 0 500 500" fill="none" xmlns="http://www.w3.org/2000/svg">
<path fill-rule="evenodd" clip-rule="evenodd" d="M321.947 94.758C322.527 86.038 327.202 78.217 336.053 79.482C344.171 80.644 346.493 87.614 345.917 96.343L337.405 224.222C337.123 262.41 330.443 306.759 312.898 330.389V369.386C312.898 370.917 312.74 372.409 312.439 373.844V384.928C312.439 398.77 304.061 410 290.183 410C290.183 410 233.012 409.93 232.171 409.832C219.506 409.414 207.254 399.132 207.254 386.481L207.264 372.046C207.158 371.175 207.103 370.288 207.103 369.386V333.793C194.703 330.724 160.695 266.772 160.255 264.893L136.434 162.401C134.461 153.91 139.403 145.341 147.476 143.261C155.545 141.189 163.688 146.385 165.662 154.883L180.017 216.385C180.804 221.597 185.451 225.142 190.404 224.313C195.353 223.484 198.729 218.595 197.942 213.387L190.158 40.0367C189.721 31.3088 196.098 23.854 204.397 23.4027C212.691 22.9437 219.771 29.6509 220.204 38.3824C220.204 38.3824 225.122 159.625 225.22 160.044C225.22 160.044 226.026 164.093 230.117 164.071C232.916 164.056 235.181 161.688 235.181 158.745L235.291 21.8271C235.291 13.088 242.027 6 250.336 6C258.645 6 265.381 13.0885 265.381 21.8271L265.385 161.347C265.385 163.938 267.379 166.036 269.841 166.036C272.3 166.036 274.298 163.938 274.298 161.347L278.209 38.8162C278.509 30.0811 285.477 23.2484 293.783 23.5591C302.087 23.8699 308.577 31.2023 308.285 39.9415L304.282 163.456C304.162 166.677 306.539 169.386 309.593 169.512C312.649 169.641 315.225 167.136 315.348 163.923L321.947 94.758Z" fill="white"/>
</svg>
