<svg width="140" height="141" viewBox="0 0 140 141" fill="none" xmlns="http://www.w3.org/2000/svg">
<path d="M132.76 62.7617H132.753C131.802 62.7625 130.861 62.9506 129.983 63.3152C129.105 63.6798 128.307 64.2138 127.635 64.8868C126.963 65.5597 126.431 66.3584 126.068 67.2371C125.704 68.1159 125.518 69.0576 125.519 70.0085C125.51 80.1593 122.718 90.1134 117.448 98.7889C112.178 107.464 104.631 114.529 95.6264 119.216C86.6221 123.902 76.5055 126.031 66.3762 125.37C56.2469 124.709 46.4925 121.285 38.1732 115.469C13.1033 97.9142 6.98846 63.2363 24.5428 38.166C42.0972 13.0958 76.7755 6.98037 101.845 24.5354C105.638 27.1842 109.085 30.2965 112.106 33.8001H91.7306C89.8103 33.8001 87.9687 34.5629 86.6108 35.9207C85.253 37.2786 84.4901 39.1202 84.4901 41.0405C84.4901 42.9608 85.253 44.8024 86.6108 46.1602C87.9687 47.5181 89.8103 48.2809 91.7306 48.2809H125.519C127.439 48.2809 129.281 47.5181 130.639 46.1602C131.997 44.8024 132.76 42.9608 132.76 41.0405V7.25189C132.76 5.33161 131.997 3.48998 130.639 2.13214C129.281 0.774302 127.439 0.0114746 125.519 0.0114746C123.599 0.0114746 121.757 0.774302 120.399 2.13214C119.042 3.48998 118.279 5.33161 118.279 7.25189V19.3093C115.738 16.8985 113.021 14.6801 110.151 12.6722C102.623 7.40073 94.1297 3.6637 85.1568 1.67452C76.184 -0.314661 66.9073 -0.517038 57.8563 1.07894C48.8052 2.67493 40.1572 6.03801 32.4059 10.9762C24.6546 15.9144 17.9518 22.3309 12.6803 29.8595C2.03403 45.0641 -2.1362 63.8752 1.08703 82.1546C4.31026 100.434 14.6629 116.684 29.8676 127.331C41.5739 135.576 55.5421 140.003 69.8609 140.006C73.985 140.004 78.1011 139.642 82.1623 138.924C98.367 136.066 113.047 127.59 123.624 114.984C134.201 102.379 139.999 86.4507 140 69.9958C139.998 68.0767 139.235 66.2367 137.877 64.8803C136.52 63.5238 134.679 62.7618 132.76 62.7617Z" fill="white"/>
</svg>
