<svg width="140" height="141" viewBox="0 0 140 141" fill="none" xmlns="http://www.w3.org/2000/svg">
<path d="M7.26356 62.762L7.2702 62.762C8.22105 62.7628 9.16242 62.9508 10.0406 63.3154C10.9188 63.6801 11.7165 64.2141 12.3883 64.887C13.0601 65.5599 13.5927 66.3586 13.9558 67.2374C14.3189 68.1162 14.5054 69.0579 14.5046 70.0087C14.5137 80.1595 17.305 90.1136 22.5752 98.7891C27.8454 107.465 35.3928 114.529 44.3971 119.216C53.4013 123.902 63.5179 126.031 73.6472 125.37C83.7765 124.71 93.5309 121.285 101.85 115.469C126.92 97.9145 133.035 63.2365 115.481 38.1663C97.9262 13.096 63.2479 6.98061 38.178 24.5356C34.3852 27.1844 30.9382 30.2967 27.9171 33.8003L48.2929 33.8003C50.2132 33.8003 52.0548 34.5631 53.4126 35.921C54.7705 37.2788 55.5333 39.1204 55.5333 41.0407C55.5333 42.961 54.7705 44.8026 53.4126 46.1605C52.0548 47.5183 50.2132 48.2811 48.2929 48.2811L14.5043 48.2811C12.584 48.2811 10.7424 47.5183 9.38453 46.1605C8.02668 44.8026 7.26387 42.961 7.26387 41.0407L7.26387 7.25212C7.26387 5.33184 8.02669 3.49022 9.38454 2.13238C10.7424 0.774535 12.584 0.0117076 14.5043 0.0117078C16.4246 0.0117079 18.2662 0.774535 19.624 2.13238C20.9819 3.49022 21.7447 5.33184 21.7447 7.25212L21.7447 19.3095C24.2855 16.8988 27.0022 14.6803 29.8721 12.6725C37.4006 7.40097 45.8938 3.66394 54.8666 1.67476C63.8394 -0.314424 73.1161 -0.5168 82.1672 1.07918C91.2182 2.67517 99.8662 6.03825 107.618 10.9764C115.369 15.9146 122.072 22.3312 127.343 29.8597C137.989 45.0644 142.16 63.8755 138.936 82.1548C135.713 100.434 125.36 116.684 110.156 127.331C98.4495 135.576 84.4813 140.003 70.1625 140.006C66.0384 140.004 61.9223 139.642 57.8611 138.924C41.6564 136.066 26.9768 127.59 16.3998 114.985C5.82287 102.379 0.0247117 86.4509 0.0234466 69.996C0.0251253 68.0769 0.78866 66.237 2.14625 64.8805C3.50384 63.524 5.34443 62.762 7.26356 62.762Z" fill="white"/>
</svg>
