<svg width="500" height="500" viewBox="0 0 500 500" fill="none" xmlns="http://www.w3.org/2000/svg">
<path fill-rule="evenodd" clip-rule="evenodd" d="M323.904 176.432C323.94 176.838 323.967 177.157 324 177.364L323.186 311.588C324.264 320.478 318.002 335.48 310.439 337.268V384.928C310.439 398.77 302.061 410 288.183 410C288.183 410 284.61 409.996 279.237 409.988C263.118 409.963 230.802 409.906 230.171 409.832C229.38 409.805 228.59 409.741 227.804 409.639C216.022 408.119 205.254 398.341 205.254 386.481L205.287 339L205.291 333.883C194.031 331.07 167.142 279.553 163.54 258.221C162.207 250.357 163.76 225.212 163.76 225.212C164.315 209.882 174.347 205.911 184.073 202.062C184.716 201.808 185.357 201.554 185.995 201.297L186.031 166.779C185.51 156.871 194.163 152.894 204.09 152.37C214.025 151.857 220.904 154.662 221.327 159.01C221.84 149.238 229.913 147 240.222 147C250.889 147 259.883 149.363 259.883 159.992V162.446C260.412 154.369 268.666 151.974 279.151 151.974C289.813 151.974 298.454 154.424 298.454 165.065L298.393 171.368C299.05 163.859 307.035 160.827 315.86 163.065C322.898 164.85 323.63 173.27 323.904 176.432Z" fill="white"/>
</svg>
