<svg width="500" height="500" viewBox="0 0 500 500" fill="none" xmlns="http://www.w3.org/2000/svg">
<path fill-rule="evenodd" clip-rule="evenodd" d="M314.904 218.432C314.94 218.838 314.967 219.157 315 219.364L314.186 353.588C315.264 362.478 309.002 377.48 301.439 379.268V426.928C301.439 440.77 293.061 452 279.183 452C279.183 452 275.61 451.996 270.237 451.988C254.118 451.963 221.802 451.906 221.171 451.832C220.38 451.805 219.59 451.741 218.804 451.639C207.022 450.119 196.254 440.341 196.254 428.481L196.287 381L196.291 375.883C185.031 373.07 158.142 321.553 154.54 300.221C153.207 292.357 154.76 267.212 154.76 267.212C155.315 251.882 165.347 247.911 175.073 244.062C175.716 243.808 176.357 243.554 176.995 243.297L177.031 208.779C176.51 198.871 185.163 194.894 195.09 194.37C205.025 193.857 211.904 196.662 212.327 201.01C212.84 191.238 220.913 189 231.222 189C241.889 189 250.883 191.363 250.883 201.992V204.446C251.412 196.369 259.666 193.974 270.151 193.974C280.813 193.974 289.454 196.424 289.454 207.065L289.393 213.368C290.05 205.859 298.035 202.827 306.86 205.065C313.898 206.85 314.63 215.27 314.904 218.432Z" fill="white"/>
</svg>
