<svg width="500" height="500" viewBox="0 0 500 500" fill="none" xmlns="http://www.w3.org/2000/svg">
<path fill-rule="evenodd" clip-rule="evenodd" d="M180.327 252.385C176.256 249.894 170.309 249.832 168.143 249.937C159.167 250.384 151.549 252.743 152.021 261.256L154.102 301.828C155.7 316.602 186.934 373.088 198.604 375.861V381H198.287L198.254 428.481C198.254 441.132 210.506 451.414 223.171 451.832C224.012 451.93 281.183 452 281.183 452C295.061 452 303.439 440.77 303.439 426.928V419.18C303.712 417.666 303.852 416.092 303.852 414.477V373.562C327.294 356.914 325.081 296.534 324.838 289.902C324.826 289.594 324.819 289.401 324.819 289.335V210.133C324.819 201.002 318.355 197.958 314.564 197.515C306.395 196.559 299.179 199.296 297.269 205.51L297.261 200.681C295.149 190.764 285.564 188.174 279.825 187.994C270.413 187.697 262.98 190.021 262.427 196.853L271.185 79.4244C271.185 70.9066 263.894 64 254.902 64C245.914 64 238.631 70.9066 238.631 79.4244L228.832 198.164C228.832 201.031 226.384 203.343 223.357 203.357C218.931 203.379 218.056 199.426 218.056 199.426C217.954 199.022 198.436 91.2571 198.436 91.2571C197.969 82.7532 190.309 76.2223 181.336 76.6621C172.36 77.1054 165.465 84.3651 165.932 92.8689L188.319 249.674C188.261 254.089 184.365 254.031 183.775 253.98C182.639 253.883 181.798 253.335 180.936 252.774C180.735 252.643 180.534 252.512 180.327 252.385Z" fill="white"/>
</svg>
