<svg width="500" height="500" viewBox="0 0 500 500" fill="none" xmlns="http://www.w3.org/2000/svg">
<path fill-rule="evenodd" clip-rule="evenodd" d="M189.327 210.385C185.256 207.894 179.309 207.832 177.143 207.937C168.167 208.384 160.549 210.743 161.021 219.256L163.102 259.828C164.7 274.602 195.934 331.088 207.604 333.861V339H207.287L207.254 386.481C207.254 399.132 219.506 409.414 232.171 409.832C233.012 409.93 290.183 410 290.183 410C304.061 410 312.439 398.77 312.439 384.928V377.18C312.712 375.666 312.852 374.092 312.852 372.477V331.562C336.294 314.914 334.081 254.534 333.838 247.902C333.826 247.594 333.819 247.401 333.819 247.335V168.133C333.819 159.002 327.355 155.958 323.564 155.515C315.395 154.559 308.179 157.296 306.269 163.51L306.261 158.681C304.149 148.764 294.564 146.174 288.825 145.994C279.413 145.697 271.98 148.021 271.427 154.853L280.185 37.4244C280.185 28.9066 272.894 22 263.902 22C254.914 22 247.631 28.9066 247.631 37.4244L237.832 156.164C237.832 159.031 235.384 161.343 232.357 161.357C227.931 161.379 227.056 157.426 227.056 157.426C226.954 157.022 207.436 49.2571 207.436 49.2571C206.969 40.7532 199.309 34.2223 190.336 34.6621C181.36 35.1054 174.465 42.3651 174.932 50.8689L197.319 207.674C197.261 212.089 193.365 212.031 192.775 211.98C191.639 211.883 190.798 211.335 189.936 210.774C189.735 210.643 189.534 210.512 189.327 210.385Z" fill="white"/>
</svg>
