<svg width="1141" height="1141" viewBox="0 0 1141 1141" fill="none" xmlns="http://www.w3.org/2000/svg">
<path fill-rule="evenodd" clip-rule="evenodd" d="M496.327 241.385C492.256 238.894 486.309 238.832 484.143 238.937C475.167 239.384 467.549 241.743 468.021 250.256L470.102 290.828C471.7 305.602 502.934 362.088 514.604 364.861V370H514.287L514.254 417.481C514.254 430.132 526.506 440.414 539.171 440.832C540.012 440.93 597.183 441 597.183 441C611.061 441 619.439 429.77 619.439 415.928V408.18C619.712 406.666 619.852 405.092 619.852 403.477V362.562C643.294 345.914 641.081 285.534 640.838 278.902C640.826 278.594 640.819 278.401 640.819 278.335V199.133C640.819 190.002 634.355 186.958 630.564 186.515C622.395 185.559 615.179 188.296 613.269 194.51L613.261 189.681C611.149 179.764 601.564 177.174 595.825 176.994C586.413 176.697 578.98 179.021 578.427 185.853L587.185 68.4244C587.185 59.9066 579.894 53 570.902 53C561.914 53 554.631 59.9066 554.631 68.4244L544.832 187.164C544.832 190.031 542.384 192.343 539.357 192.357C534.931 192.379 534.056 188.426 534.056 188.426C533.954 188.022 514.436 80.2571 514.436 80.2571C513.969 71.7532 506.309 65.2223 497.336 65.6621C488.36 66.1054 481.465 73.3651 481.932 81.8689L504.319 238.674C504.261 243.089 500.365 243.031 499.775 242.98C498.639 242.883 497.798 242.335 496.936 241.774C496.735 241.643 496.534 241.512 496.327 241.385Z" fill="white"/>
</svg>
