<svg width="1141" height="1141" viewBox="0 0 1141 1141" fill="none" xmlns="http://www.w3.org/2000/svg">
<path fill-rule="evenodd" clip-rule="evenodd" d="M501.327 241.385C497.256 238.894 491.309 238.832 489.143 238.937C480.167 239.384 472.549 241.743 473.021 250.256L475.102 290.828C476.7 305.602 507.934 362.088 519.604 364.861V370H519.287L519.254 417.481C519.254 430.132 531.506 440.414 544.171 440.832C545.012 440.93 602.183 441 602.183 441C616.061 441 624.439 429.77 624.439 415.928V408.18C624.712 406.666 624.852 405.092 624.852 403.477V362.562C648.294 345.914 646.081 285.534 645.838 278.902C645.826 278.594 645.819 278.401 645.819 278.335V199.133C645.819 190.002 639.355 186.958 635.564 186.515C627.395 185.559 620.179 188.296 618.269 194.51L618.261 189.681C616.149 179.764 606.564 177.174 600.825 176.994C591.413 176.697 583.98 179.021 583.427 185.853L592.185 68.4244C592.185 59.9066 584.894 53 575.902 53C566.914 53 559.631 59.9066 559.631 68.4244L549.832 187.164C549.832 190.031 547.384 192.343 544.357 192.357C539.931 192.379 539.056 188.426 539.056 188.426C538.954 188.022 519.436 80.2571 519.436 80.2571C518.969 71.7532 511.309 65.2223 502.336 65.6621C493.36 66.1054 486.465 73.3651 486.932 81.8689L509.319 238.674C509.261 243.089 505.365 243.031 504.775 242.98C503.639 242.883 502.798 242.335 501.936 241.774C501.735 241.643 501.534 241.512 501.327 241.385Z" fill="white"/>
</svg>
