<svg width="1141" height="1141" viewBox="0 0 1141 1141" fill="none" xmlns="http://www.w3.org/2000/svg">
<path fill-rule="evenodd" clip-rule="evenodd" d="M909.034 819.656C916.296 824.518 920.732 832.477 915.211 839.51C910.145 845.959 902.948 844.485 895.676 839.622L789.186 768.311C756.255 748.973 721.188 721.013 709.496 694.004L675.724 674.505C674.398 673.74 673.185 672.857 672.093 671.879L662.494 666.337C650.506 659.416 644.97 646.545 651.909 634.526C651.909 634.526 680.555 585.05 681.06 584.37C687.755 573.611 702.785 568.142 713.741 574.467L726.237 581.693C727.045 582.037 727.84 582.433 728.621 582.884L759.446 600.68C768.304 591.476 840.692 594 842.539 594.559L943.21 625.175C951.55 627.712 956.5 636.276 954.265 644.308C952.025 652.332 943.453 656.786 935.107 654.246L874.667 635.927C869.76 634.003 864.366 636.255 862.608 640.959C860.851 645.659 863.397 651.027 868.301 652.95L1022.32 732.884C1030.1 736.869 1033.36 746.119 1029.6 753.532C1025.86 760.944 1016.51 763.722 1008.73 759.732C1008.73 759.732 901.27 703.369 900.858 703.245C900.858 703.245 896.949 701.918 894.922 705.472C893.536 707.904 894.454 711.049 897.003 712.521L1015.52 781.075C1023.09 785.444 1025.86 794.822 1021.71 802.018C1017.55 809.214 1008.04 811.503 1000.48 807.134L879.647 737.377C877.403 736.082 874.59 736.759 873.359 738.892C872.129 741.021 872.947 743.8 875.191 745.096L979.35 809.748C986.765 814.376 989.198 823.827 984.776 830.864C980.355 837.901 970.76 839.855 963.338 835.232L858.372 770.008C855.643 768.294 852.108 768.998 850.472 771.58C848.833 774.162 849.714 777.645 852.435 779.358L909.034 819.656Z" fill="white"/>
</svg>
