<svg width="1141" height="1141" viewBox="0 0 1141 1141" fill="none" xmlns="http://www.w3.org/2000/svg">
<path fill-rule="evenodd" clip-rule="evenodd" d="M222.537 682.867C222.871 682.633 223.133 682.45 223.296 682.318L339.944 615.911C347.104 610.532 363.228 608.454 368.558 614.11L409.832 590.28C421.82 583.359 435.734 585 442.673 597.018C442.673 597.018 444.456 600.115 447.136 604.772C455.174 618.744 471.282 646.759 471.534 647.342C471.906 648.041 472.245 648.757 472.55 649.489C477.125 660.452 474.041 674.667 463.77 680.597L422.633 704.308L418.2 706.863C421.394 718.021 390.223 767.066 373.55 780.852C367.406 785.938 344.854 797.166 344.854 797.166C331.3 804.35 322.845 797.648 314.649 791.149C314.107 790.719 313.567 790.291 313.025 789.867L283.114 807.095C274.794 812.5 267.023 806.995 261.606 798.66C256.194 790.313 255.184 782.953 258.738 780.412C250.018 784.854 244.044 778.982 238.889 770.054C233.556 760.816 231.105 751.845 240.31 746.531L242.435 745.304C235.176 748.884 228.975 742.934 223.732 733.853C218.401 724.62 216.202 715.911 225.418 710.591L230.907 707.492C224.075 710.678 217.457 705.279 214.983 696.517C213.01 689.529 219.936 684.685 222.537 682.867Z" fill="white"/>
</svg>
