<svg width="1141" height="1141" viewBox="0 0 1141 1141" fill="none" xmlns="http://www.w3.org/2000/svg">
<path fill-rule="evenodd" clip-rule="evenodd" d="M903.034 830.048C910.296 834.91 914.732 842.87 909.211 849.902C904.145 856.352 896.948 854.878 889.676 850.014L783.186 778.703C750.255 759.365 715.188 731.405 703.496 704.396L669.724 684.897C668.398 684.132 667.185 683.249 666.093 682.271L656.494 676.729C644.506 669.808 638.97 656.937 645.909 644.919C645.909 644.919 674.555 595.442 675.06 594.763C681.755 584.004 696.785 578.534 707.741 584.86L720.237 592.086C721.045 592.429 721.84 592.825 722.621 593.276L753.446 611.073C762.304 601.869 834.692 604.393 836.539 604.951L937.21 635.568C945.55 638.104 950.5 646.669 948.265 654.7C946.025 662.724 937.453 667.178 929.107 664.639L868.667 646.32C863.76 644.395 858.366 646.647 856.608 651.351C854.851 656.051 857.397 661.42 862.301 663.342L1016.32 743.276C1024.1 747.262 1027.36 756.512 1023.6 763.924C1019.86 771.337 1010.51 774.115 1002.73 770.124C1002.73 770.124 895.27 713.762 894.858 713.637C894.858 713.637 890.949 712.311 888.922 715.864C887.536 718.296 888.454 721.442 891.003 722.913L1009.52 791.467C1017.09 795.837 1019.86 805.214 1015.71 812.41C1011.55 819.606 1002.04 821.895 994.477 817.526L873.647 747.769C871.403 746.474 868.59 747.152 867.359 749.284C866.129 751.414 866.947 754.193 869.191 755.488L973.35 820.141C980.765 824.768 983.198 834.219 978.776 841.257C974.355 848.293 964.76 850.247 957.338 845.625L852.372 780.401C849.643 778.686 846.108 779.39 844.472 781.972C842.833 784.554 843.714 788.038 846.435 789.751L903.034 830.048Z" fill="white"/>
</svg>
