<svg width="1141" height="1141" viewBox="0 0 1141 1141" fill="none" xmlns="http://www.w3.org/2000/svg">
<path fill-rule="evenodd" clip-rule="evenodd" d="M227.592 691.148C227.927 690.915 228.19 690.733 228.353 690.601L345.197 624.538C352.373 619.181 368.502 617.151 373.815 622.822L415.16 599.114C427.168 592.228 441.078 593.91 447.981 605.949C447.981 605.949 449.755 609.051 452.421 613.716C460.417 627.711 476.443 655.774 476.693 656.358C477.063 657.057 477.4 657.775 477.703 658.507C482.245 669.484 479.119 683.689 468.831 689.589L427.625 713.179L423.184 715.721C426.345 726.889 395.03 775.842 378.316 789.578C372.157 794.646 349.571 805.807 349.571 805.807C335.996 812.951 327.561 806.224 319.384 799.701C318.844 799.27 318.305 798.84 317.764 798.415L287.802 815.554C279.466 820.935 271.712 815.407 266.319 807.056C260.932 798.692 259.944 791.329 263.505 788.799C254.773 793.215 248.815 787.325 243.687 778.382C238.381 769.129 235.957 760.151 245.177 754.864L247.306 753.643C240.036 757.202 233.853 751.233 228.637 742.137C223.333 732.888 221.16 724.173 230.391 718.88L235.89 715.798C229.049 718.963 222.446 713.544 219.998 704.775C218.045 697.782 224.986 692.958 227.592 691.148Z" fill="white"/>
</svg>
